<svg xmlns="http://www.w3.org/2000/svg" width="33.739" height="40.842" viewBox="0 0 33.739 40.842" fill="none">
  <path d="M 33.739 40.842 L 33.739 43.802 L 36.699 43.802 L 36.699 40.842 L 33.739 40.842 Z M 0 40.842 L -2.96 40.842 L -2.96 43.802 L 0 43.802 L 0 40.842 Z M 33.739 16.87 L 30.78 16.87 L 30.78 40.842 L 33.739 40.842 L 36.699 40.842 L 36.699 16.87 L 33.739 16.87 Z M 33.739 40.842 L 33.739 37.883 L 0 37.883 L 0 40.842 L 0 43.802 L 33.739 43.802 L 33.739 40.842 Z M 0 40.842 L 2.96 40.842 L 2.96 16.87 L 0 16.87 L -2.96 16.87 L -2.96 40.842 L 0 40.842 Z M 16.87 0 L 16.87 2.96 C 24.552 2.96 30.78 9.187 30.78 16.87 L 33.739 16.87 L 36.699 16.87 C 36.699 5.918 27.821 -2.96 16.87 -2.96 L 16.87 0 Z M 16.87 0 L 16.87 -2.96 C 5.918 -2.96 -2.96 5.918 -2.96 16.87 L 0 16.87 L 2.96 16.87 C 2.96 9.187 9.187 2.96 16.87 2.96 L 16.87 0 Z" fill="currentColor" fill-rule="nonzero"></path>
</svg>