<svg width="28" height="28" viewBox="0 0 28 28" fill="none" xmlns="http://www.w3.org/2000/svg">
<g clip-path="url(#clip0_2_773)">
<path d="M7.7002 14.9453H17.5V16.3457C17.4998 19.4385 14.9922 21.9453 11.8994 21.9453H7.7002V24.749L0 18.4482L7.7002 12.1484V14.9453Z" fill="#05945B"></path>
<path d="M7.7002 14.9453H7.42018C7.42018 15.1 7.54555 15.2253 7.7002 15.2253V14.9453ZM17.5 14.9453H17.78C17.78 14.7907 17.6546 14.6653 17.5 14.6653V14.9453ZM17.5 16.3457L17.78 16.3457V16.3457H17.5ZM7.7002 21.9453V21.6653C7.54555 21.6653 7.42018 21.7907 7.42018 21.9453H7.7002ZM7.7002 24.749L7.52287 24.9657C7.60661 25.0342 7.72232 25.0484 7.8201 25.0021C7.91787 24.9557 7.98021 24.8572 7.98021 24.749H7.7002ZM0 18.4482L-0.177308 18.2315C-0.242309 18.2847 -0.280008 18.3642 -0.280011 18.4482C-0.280014 18.5322 -0.242321 18.6118 -0.177324 18.6649L0 18.4482ZM7.7002 12.1484H7.98021C7.98021 12.0402 7.91788 11.9417 7.82011 11.8954C7.72234 11.8491 7.60663 11.8632 7.52289 11.9317L7.7002 12.1484ZM7.7002 14.9453V15.2253H17.5V14.9453V14.6653H7.7002V14.9453ZM17.5 14.9453H17.22V16.3457H17.5H17.78V14.9453H17.5ZM17.5 16.3457L17.22 16.3457C17.2198 19.2838 14.8376 21.6653 11.8994 21.6653V21.9453V22.2253C15.1468 22.2253 17.7798 19.5932 17.78 16.3457L17.5 16.3457ZM11.8994 21.9453V21.6653H7.7002V21.9453V22.2253H11.8994V21.9453ZM7.7002 21.9453H7.42018V24.749H7.7002H7.98021V21.9453H7.7002ZM7.7002 24.749L7.87752 24.5323L0.177324 18.2315L0 18.4482L-0.177324 18.6649L7.52287 24.9657L7.7002 24.749ZM0 18.4482L0.177308 18.665L7.8775 12.3652L7.7002 12.1484L7.52289 11.9317L-0.177308 18.2315L0 18.4482ZM7.7002 12.1484H7.42018V14.9453H7.7002H7.98021V12.1484H7.7002Z" fill="#05945B"></path>
<path d="M28 8.64941L20.2998 14.9492V12.1484H10.5V10.748C10.5002 7.65529 13.0078 5.14844 16.1006 5.14844H20.2998V2.34863L28 8.64941Z" fill="#05945B"></path>
<path d="M28 8.64941L28.0887 8.75777C28.1212 8.73118 28.14 8.69141 28.14 8.64942C28.14 8.60743 28.1212 8.56765 28.0887 8.54106L28 8.64941ZM20.2998 14.9492H20.1598C20.1598 15.0033 20.191 15.0526 20.2398 15.0757C20.2887 15.0989 20.3466 15.0918 20.3885 15.0576L20.2998 14.9492ZM20.2998 12.1484H20.4398C20.4398 12.0711 20.3771 12.0084 20.2998 12.0084V12.1484ZM10.5 12.1484H10.36C10.36 12.2258 10.4227 12.2884 10.5 12.2884V12.1484ZM10.5 10.748L10.36 10.748V10.748H10.5ZM20.2998 5.14844V5.28844C20.3771 5.28844 20.4398 5.22576 20.4398 5.14844H20.2998ZM20.2998 2.34863L20.3885 2.24028C20.3466 2.20602 20.2887 2.19895 20.2399 2.22211C20.191 2.24528 20.1598 2.29453 20.1598 2.34863H20.2998ZM28 8.64941L27.9113 8.54105L20.2112 14.8409L20.2998 14.9492L20.3885 15.0576L28.0887 8.75777L28 8.64941ZM20.2998 14.9492H20.4398V12.1484H20.2998H20.1598V14.9492H20.2998ZM20.2998 12.1484V12.0084H10.5V12.1484V12.2884H20.2998V12.1484ZM10.5 12.1484H10.64V10.748H10.5H10.36V12.1484H10.5ZM10.5 10.748L10.64 10.7481C10.6402 7.73263 13.0851 5.28844 16.1006 5.28844V5.14844V5.00843C12.9305 5.00843 10.3602 7.57794 10.36 10.748L10.5 10.748ZM16.1006 5.14844V5.28844H20.2998V5.14844V5.00843H16.1006V5.14844ZM20.2998 5.14844H20.4398V2.34863H20.2998H20.1598V5.14844H20.2998ZM20.2998 2.34863L20.2111 2.45699L27.9113 8.75777L28 8.64941L28.0887 8.54106L20.3885 2.24028L20.2998 2.34863Z" fill="#05945B"></path>
</g>
<defs>
<clipPath id="clip0_2_773">
<rect width="28" height="28" fill="white"></rect>
</clipPath>
</defs>
</svg>