<svg xmlns="http://www.w3.org/2000/svg" width="17.500" height="12.601" viewBox="0 0 17.500 12.601" fill="none">
  <path d="M 17.5 6.301 L 9.8 12.601 L 9.8 9.8 L 0 9.8 L 0 8.399 C 0 5.307 2.508 2.8 5.601 2.8 L 9.8 2.8 L 9.8 0 L 17.5 6.301 Z" fill="currentColor" fill-rule="nonzero"></path>
  <path d="M 17.5 6.301 L 17.589 6.409 C 17.621 6.383 17.64 6.343 17.64 6.301 C 17.64 6.259 17.621 6.219 17.589 6.192 L 17.5 6.301 Z M 9.8 12.601 L 9.66 12.601 C 9.66 12.655 9.691 12.704 9.74 12.727 C 9.789 12.75 9.847 12.743 9.888 12.709 L 9.8 12.601 Z M 9.8 9.8 L 9.94 9.8 C 9.94 9.722 9.877 9.66 9.8 9.66 L 9.8 9.8 Z M 0 9.8 L -0.14 9.8 C -0.14 9.877 -0.077 9.94 0 9.94 L 0 9.8 Z M 0 8.399 L -0.14 8.399 L -0.14 8.399 L 0 8.399 Z M 9.8 2.8 L 9.8 2.94 C 9.877 2.94 9.94 2.877 9.94 2.8 L 9.8 2.8 Z M 9.8 0 L 9.888 -0.108 C 9.847 -0.143 9.789 -0.15 9.74 -0.127 C 9.691 -0.103 9.66 -0.054 9.66 0 L 9.8 0 Z M 17.5 6.301 L 17.411 6.192 L 9.711 12.492 L 9.8 12.601 L 9.888 12.709 L 17.589 6.409 L 17.5 6.301 Z M 9.8 12.601 L 9.94 12.601 L 9.94 9.8 L 9.8 9.8 L 9.66 9.8 L 9.66 12.601 L 9.8 12.601 Z M 9.8 9.8 L 9.8 9.66 L 0 9.66 L 0 9.8 L 0 9.94 L 9.8 9.94 L 9.8 9.8 Z M 0 9.8 L 0.14 9.8 L 0.14 8.399 L 0 8.399 L -0.14 8.399 L -0.14 9.8 L 0 9.8 Z M 0 8.399 L 0.14 8.399 C 0.14 5.384 2.585 2.94 5.601 2.94 L 5.601 2.8 L 5.601 2.66 C 2.43 2.66 -0.14 5.229 -0.14 8.399 L 0 8.399 Z M 5.601 2.8 L 5.601 2.94 L 9.8 2.94 L 9.8 2.8 L 9.8 2.66 L 5.601 2.66 L 5.601 2.8 Z M 9.8 2.8 L 9.94 2.8 L 9.94 0 L 9.8 0 L 9.66 0 L 9.66 2.8 L 9.8 2.8 Z M 9.8 0 L 9.711 0.108 L 17.411 6.409 L 17.5 6.301 L 17.589 6.192 L 9.888 -0.108 L 9.8 0 Z" fill="currentColor" fill-rule="nonzero"></path>
</svg>