<svg xmlns="http://www.w3.org/2000/svg" width="17.455" height="24" viewBox="0 0 17.455 24" fill="none">
  <path d="M 12.556 0.681 C 12.607 0.43 12.48 0.177 12.247 0.061 C 12.015 -0.054 11.732 -0.003 11.556 0.186 L 0.153 12.431 C 0.023 12.57 -0.029 12.764 0.016 12.948 C 0.06 13.132 0.194 13.282 0.374 13.35 L 6.433 15.627 L 4.898 23.319 C 4.848 23.57 4.974 23.823 5.207 23.939 C 5.44 24.054 5.722 24.003 5.898 23.814 L 17.302 11.569 C 17.432 11.43 17.483 11.236 17.439 11.052 C 17.395 10.868 17.26 10.718 17.081 10.65 L 11.021 8.373 L 12.556 0.681 Z" fill="currentColor" fill-rule="nonzero"></path>
</svg>