<svg xmlns="http://www.w3.org/2000/svg" width="17.500" height="12.601" viewBox="0 0 17.500 12.601" fill="none">
  <path d="M 7.7 2.797 L 17.5 2.797 L 17.5 4.197 C 17.5 7.29 14.992 9.797 11.899 9.797 L 7.7 9.797 L 7.7 12.601 L 0 6.3 L 7.7 0 L 7.7 2.797 Z" fill="currentColor" fill-rule="nonzero"></path>
  <path d="M 7.7 2.797 L 7.42 2.797 C 7.42 2.952 7.546 3.077 7.7 3.077 L 7.7 2.797 Z M 17.5 2.797 L 17.78 2.797 C 17.78 2.642 17.655 2.517 17.5 2.517 L 17.5 2.797 Z M 17.5 4.197 L 17.78 4.197 L 17.78 4.197 L 17.5 4.197 Z M 7.7 9.797 L 7.7 9.517 C 7.546 9.517 7.42 9.642 7.42 9.797 L 7.7 9.797 Z M 7.7 12.601 L 7.523 12.817 C 7.607 12.886 7.722 12.9 7.82 12.854 C 7.918 12.807 7.98 12.709 7.98 12.601 L 7.7 12.601 Z M 0 6.3 L -0.177 6.083 C -0.242 6.136 -0.28 6.216 -0.28 6.3 C -0.28 6.384 -0.242 6.463 -0.177 6.517 L 0 6.3 Z M 7.7 0 L 7.98 0 C 7.98 -0.108 7.918 -0.207 7.82 -0.253 C 7.722 -0.299 7.607 -0.285 7.523 -0.217 L 7.7 0 Z M 7.7 2.797 L 7.7 3.077 L 17.5 3.077 L 17.5 2.797 L 17.5 2.517 L 7.7 2.517 L 7.7 2.797 Z M 17.5 2.797 L 17.22 2.797 L 17.22 4.197 L 17.5 4.197 L 17.78 4.197 L 17.78 2.797 L 17.5 2.797 Z M 17.5 4.197 L 17.22 4.197 C 17.22 7.135 14.838 9.517 11.899 9.517 L 11.899 9.797 L 11.899 10.077 C 15.147 10.077 17.78 7.445 17.78 4.197 L 17.5 4.197 Z M 11.899 9.797 L 11.899 9.517 L 7.7 9.517 L 7.7 9.797 L 7.7 10.077 L 11.899 10.077 L 11.899 9.797 Z M 7.7 9.797 L 7.42 9.797 L 7.42 12.601 L 7.7 12.601 L 7.98 12.601 L 7.98 9.797 L 7.7 9.797 Z M 7.7 12.601 L 7.878 12.384 L 0.177 6.083 L 0 6.3 L -0.177 6.517 L 7.523 12.817 L 7.7 12.601 Z M 0 6.3 L 0.177 6.517 L 7.878 0.217 L 7.7 0 L 7.523 -0.217 L -0.177 6.083 L 0 6.3 Z M 7.7 0 L 7.42 0 L 7.42 2.797 L 7.7 2.797 L 7.98 2.797 L 7.98 0 L 7.7 0 Z" fill="currentColor" fill-rule="nonzero"></path>
</svg>