<svg width="117" height="145" viewBox="0 0 117 145" fill="none" xmlns="http://www.w3.org/2000/svg">
<path d="M2.99292 82.0077C2.99292 81.6979 3.24404 81.4468 3.5538 81.4468H16.6411C16.9509 81.4468 17.202 81.6979 17.202 82.0077V88.9252H2.99292V82.0077Z" fill="#757575"></path>
<path d="M2.99292 88.922L17.0091 88.922C17.1175 88.922 17.2253 88.9377 17.3292 88.9686L20.674 89.9642C20.8325 90.0114 20.9412 90.1572 20.9412 90.3226V91.4119C20.9412 91.6621 20.7004 91.8417 20.4606 91.7703L17.3292 90.8382C17.2253 90.8073 17.1175 90.7916 17.0091 90.7916H2.99292V88.922Z" fill="#545454"></path>
<path d="M0 97.9396C0 96.2072 0.515172 94.514 1.48001 93.0752L3.00892 90.7952H16.9478L18.5358 92.9916C19.6123 94.4807 20.1918 96.2713 20.1918 98.1088V143.144C20.1918 143.764 19.6896 144.266 19.0701 144.266H1.12177C0.502233 144.266 0 143.764 0 143.144V97.9396Z" fill="black"></path>
<path d="M21.4723 97.8978L23.1816 97.5002L25.9409 106.479C26.3854 107.926 25.425 109.473 23.9296 109.72C22.4446 109.965 21.1403 108.809 21.1865 107.29L21.4723 97.8978Z" stroke="#545454" stroke-width="0.713415" stroke-linejoin="round"></path>
<path d="M20.7449 94.16L22.4555 93.7626L23.1819 97.4979L21.4712 97.8953L20.7449 94.16Z" stroke="#545454" stroke-width="0.713415" stroke-linejoin="round"></path>
<path d="M20.0251 90.0134C20.1051 89.6751 20.3548 89.3977 20.6909 89.3201C21.1634 89.2111 21.6278 89.5385 21.7282 90.0513L22.4556 93.7655L20.7446 94.1602L20.1944 91.4321" stroke="#545454" stroke-width="0.713415" stroke-linejoin="round"></path>
<g clip-path="url(#clip0_2_719)">
<path d="M12.3306 117.467L12.3306 118.439L15.79 116.428L15.79 115.523L12.3306 113.506L12.3306 114.484L14.8969 115.973L12.3306 117.467Z" fill="#757575"></path>
<path d="M12.3306 120.329L12.3306 121.171L15.79 121.171L15.79 120.329L12.3306 120.329Z" fill="#757575"></path>
<path d="M12.3306 127.057L12.3306 123.103L13.171 123.103L13.171 124.659L15.79 124.659L15.79 125.506L13.171 125.506L13.171 127.057L12.3306 127.057Z" fill="#757575"></path>
<path d="M12.3306 130.046L12.3306 130.951L15.79 132.962L15.79 131.99L13.229 130.496L15.79 129.007L15.79 128.029L12.3306 130.046Z" fill="#757575"></path>
<path d="M12.3306 138.571L12.3306 137.769L12.3531 137.747L14.5846 135.464L12.3306 135.464L12.3306 134.617L15.79 134.617L15.79 135.43L13.5415 137.729L15.79 137.729L15.79 138.571L12.3306 138.571Z" fill="#757575"></path>
<path d="M12.3306 111.572L15.79 111.572L15.79 107.706L15.0569 107.706L15.0569 110.847L14.437 110.847L14.437 107.706L13.6891 107.706L13.6891 110.847L13.0694 110.847L13.0694 107.706L12.3306 107.706L12.3306 111.572Z" fill="#757575"></path>
</g>
<rect x="30.5825" y="46.8777" width="86.4177" height="97.0537" rx="1.3295" fill="black"></rect>
<g clip-path="url(#clip1_2_719)">
<path d="M68.3135 64.5089H66.9646L69.7552 69.3088H71.0107L73.8096 64.5089H72.4524L70.3867 68.0697L68.3135 64.5089Z" fill="#757575"></path>
<path d="M64.3417 64.5089H63.1736V69.3088H64.3417V64.5089Z" fill="#757575"></path>
<path d="M55.0071 64.5089H60.4937V65.6751H58.3344V69.3088H57.1586V65.6751H55.0071V64.5089Z" fill="#757575"></path>
<path d="M50.8598 64.5089H49.6045L46.8137 69.3088H48.1626L50.236 65.7555L52.3017 69.3088H53.6587L50.8598 64.5089Z" fill="#757575"></path>
<path d="M39.0312 64.5089H40.1439L40.1755 64.5402L43.3421 67.6364V64.5089H44.5179V69.3088H43.39L40.1993 66.189V69.3088H39.0312V64.5089Z" fill="#757575"></path>
<path d="M76.4927 64.5089L76.4922 69.3088H81.8571V68.2916H77.4983V67.4315H81.8571V66.3939H77.4983V65.5341H81.8571V64.5089H76.4927Z" fill="#757575"></path>
</g>
<path d="M30.5825 48.2072C30.5825 47.4729 31.1778 46.8777 31.912 46.8777H115.671C116.405 46.8777 117 47.4729 117 48.2072V53.5252H30.5825V48.2072Z" fill="#545454"></path>
<path d="M54.8435 22.9454C54.8435 12.4821 63.3257 4 73.7889 4C84.2522 4 92.7344 12.4822 92.7344 22.9454V49.8679H54.8435V22.9454Z" stroke="#545454" stroke-width="6.64752"></path>
<rect x="38.8867" y="119.003" width="33.2376" height="2.65901" fill="#545454"></rect>
<rect x="38.8867" y="124.32" width="28.5843" height="2.65901" fill="#545454"></rect>
<defs>
<clipPath id="clip0_2_719">
<rect width="31.0357" height="3.95757" fill="white" transform="translate(12.0774 138.656) rotate(-90)"></rect>
</clipPath>
<clipPath id="clip1_2_719">
<rect width="43.0617" height="5.49109" fill="white" transform="translate(38.9133 64.1577)"></rect>
</clipPath>
</defs>
</svg>