<svg width="24" height="25" viewBox="0 0 24 25" fill="none" xmlns="http://www.w3.org/2000/svg">
<path d="M15.8103 0.681359C15.8605 0.430026 15.7342 0.176614 15.5014 0.0612617C15.2686 -0.0540902 14.986 -0.00320344 14.81 0.185781L3.40642 12.4307C3.27647 12.5702 3.22522 12.7638 3.26953 12.9478C3.31385 13.1319 3.44798 13.2824 3.6278 13.35L9.68699 15.6272L8.15205 23.3186C8.10189 23.57 8.22813 23.8234 8.46096 23.9387C8.69378 24.0541 8.97632 24.0032 9.15232 23.8142L20.5559 11.5693C20.6859 11.4298 20.7371 11.2362 20.6928 11.0522C20.6485 10.8681 20.5144 10.7176 20.3346 10.65L14.2754 8.37283L15.8103 0.681359Z" fill="#05945B"></path>
</svg>