<svg width="91" height="73" viewBox="0 0 91 73" fill="none" xmlns="http://www.w3.org/2000/svg">
<rect width="48.7763" height="71.1321" rx="1.68981" fill="#404040"></rect>
<path opacity="0.5" d="M0 5.07861H48.7763V43.6932H0V5.07861Z" fill="#757575"></path>
<path opacity="0.5" d="M39.6304 65.9651C39.6304 65.7317 39.8195 65.5426 40.0528 65.5426H45.305C45.5383 65.5426 45.7274 65.7317 45.7274 65.9651V67.6606C45.7274 67.8939 45.5383 68.083 45.305 68.083H40.0528C39.8195 68.083 39.6304 67.8939 39.6304 67.6606V65.9651Z" fill="#404040"></path>
<path d="M19.3079 43.6967H29.4696V45.3065C29.4696 45.5399 29.2804 45.729 29.0471 45.729H19.7303C19.497 45.729 19.3079 45.5399 19.3079 45.3065V43.6967Z" fill="#262626"></path>
<path d="M27.9453 58.6011C27.9453 59.0676 27.5671 59.4466 27.1006 59.4468H21.6768C21.2102 59.4467 20.832 59.0676 20.832 58.6011V51.3169H21.8486V56.4839C21.8488 56.717 22.0374 56.9056 22.2705 56.9058H26.5068C26.74 56.9057 26.9286 56.717 26.9287 56.4839V51.3169H27.9453V58.6011Z" fill="#262626"></path>
<path d="M20.3237 45.731H28.4531V51.4055C28.4531 51.6389 28.264 51.828 28.0307 51.828H20.7462C20.5129 51.828 20.3237 51.6389 20.3237 51.4055V45.731Z" fill="#262626"></path>
<path d="M22.8643 51.8242H25.9128V54.6615C25.9128 54.7782 25.8182 54.8727 25.7015 54.8727H23.0755C22.9588 54.8727 22.8643 54.7782 22.8643 54.6615V51.8242Z" fill="#757575"></path>
<path d="M5.08105 71.1333H9.14574V71.727C9.14574 71.9603 8.9566 72.1495 8.72329 72.1495H5.50351C5.27019 72.1495 5.08105 71.9603 5.08105 71.727V71.1333Z" fill="#404040"></path>
<path d="M39.6309 71.1333H43.6955V71.727C43.6955 71.9603 43.5064 72.1495 43.2731 72.1495H40.0533C39.82 72.1495 39.6309 71.9603 39.6309 71.727V71.1333Z" fill="#404040"></path>
<circle cx="64.9459" cy="36.081" r="25.0541" fill="#07794C" stroke="#262626" stroke-width="2"></circle>
<path d="M57.2153 37.801H69.2407V40.677C69.2407 43.8329 66.6828 46.3909 63.5269 46.3909H57.2153V49.8245L47.7651 42.093L57.2153 34.3616V37.801Z" fill="#BBE2CE"></path>
<path d="M82.1272 30.0693L72.677 37.8008V34.3613H60.6506V31.4854C60.6506 28.3294 63.2096 25.7705 66.3655 25.7705H72.677V22.3369L82.1272 30.0693Z" fill="#BBE2CE"></path>
<path d="M82.1272 30.0693L82.2177 30.1799C82.2508 30.1528 82.2701 30.1122 82.2701 30.0693C82.2701 30.0265 82.2508 29.9859 82.2177 29.9588L82.1272 30.0693ZM72.677 37.8008H72.5341C72.5341 37.856 72.5659 37.9062 72.6158 37.9299C72.6657 37.9535 72.7247 37.9463 72.7675 37.9113L72.677 37.8008ZM72.677 34.3613H72.8199C72.8199 34.2824 72.7559 34.2185 72.677 34.2185V34.3613ZM60.6506 34.3613H60.5078C60.5078 34.4402 60.5717 34.5042 60.6506 34.5042V34.3613ZM72.677 25.7705V25.9134C72.7559 25.9134 72.8199 25.8494 72.8199 25.7705H72.677ZM72.677 22.3369L72.7675 22.2264C72.7247 22.1914 72.6657 22.1842 72.6158 22.2078C72.5659 22.2315 72.5341 22.2817 72.5341 22.3369H72.677ZM82.1272 30.0693L82.0367 29.9588L72.5865 37.6902L72.677 37.8008L72.7675 37.9113L82.2177 30.1799L82.1272 30.0693ZM72.677 37.8008H72.8199V34.3613H72.677H72.5341V37.8008H72.677ZM72.677 34.3613V34.2185H60.6506V34.3613V34.5042H72.677V34.3613ZM60.6506 34.3613H60.7935V31.4854H60.6506H60.5078V34.3613H60.6506ZM60.6506 31.4854H60.7935C60.7935 28.4083 63.2885 25.9134 66.3655 25.9134V25.7705V25.6277C63.1307 25.6277 60.5078 28.2505 60.5078 31.4854H60.6506ZM66.3655 25.7705V25.9134H72.677V25.7705V25.6277H66.3655V25.7705ZM72.677 25.7705H72.8199V22.3369H72.677H72.5341V25.7705H72.677ZM72.677 22.3369L72.5865 22.4475L82.0367 30.1799L82.1272 30.0693L82.2177 29.9588L72.7675 22.2264L72.677 22.3369Z" fill="#BBE2CE"></path>
</svg>