<svg width="87" height="12" viewBox="0 0 87 12" fill="none" xmlns="http://www.w3.org/2000/svg">
<path d="M58.7845 0.716309L56.0874 0.716309L61.6672 10.5065H64.1774L69.7736 0.716309L67.06 0.716309L62.9298 7.97906L58.7845 0.716309Z" fill="#0F0F0F"></path>
<path d="M50.8434 0.716309L48.5078 0.716309V10.5065H50.8434V0.716309Z" fill="#0F0F0F"></path>
<path d="M32.1787 0.716309L43.149 0.716309V3.09487L38.8315 3.09487V10.5065H36.4806V3.09487L32.1787 3.09487V0.716309Z" fill="#0F0F0F"></path>
<path d="M23.8863 0.716309L21.3765 0.716309L15.7964 10.5065H18.4934L22.639 3.259L26.7694 10.5065H29.4826L23.8863 0.716309Z" fill="#0F0F0F"></path>
<path d="M0.23584 0.716309L2.46051 0.716309L2.52365 0.780184L8.85513 7.09535V0.716309L11.2061 0.716309V10.5065H8.95089L2.57121 4.14322L2.57121 10.5065H0.23584L0.23584 0.716309Z" fill="#0F0F0F"></path>
<path d="M75.1381 0.716309L75.1372 10.5065H85.8641V8.43182H77.1489V6.67742L85.8641 6.67742V4.56102H77.1489V2.80734L85.8641 2.80734V0.716309L75.1381 0.716309Z" fill="#0F0F0F"></path>
</svg>