<svg width="148" height="131" viewBox="0 0 148 131" fill="none" xmlns="http://www.w3.org/2000/svg">
<g clip-path="url(#clip0_7_195)">
<path opacity="0.2" d="M88.7909 51.7979L110.957 59.9998L50.036 125.369L59.0562 80.1673L36.9238 71.8895L97.7571 6.60022L88.7909 51.7979Z" stroke="#05945B" stroke-width="1.31765"></path>
<path opacity="0.1" d="M100.879 45.0308L129.461 55.6068L32.4318 159.719L46.9633 86.8984L18.4626 76.2388L115.309 -27.6999L100.879 45.0308Z" stroke="#05945B" stroke-width="1.31765"></path>
<path opacity="0.05" d="M112.965 38.2637L147.963 51.2137L14.8274 194.069L34.8688 93.6295L0 80.5881L132.859 -62L112.965 38.2637Z" stroke="#05945B" stroke-width="1.31765"></path>
<path d="M84.5962 32.3242L79.7267 56.8746L97.0805 63.2949L63.241 99.6052L68.1274 75.1204L50.7708 68.628L84.5962 32.3242Z" fill="#05945B"></path>
</g>
<defs>
<clipPath id="clip0_7_195">
<rect width="148" height="131" rx="8" fill="white"></rect>
</clipPath>
</defs>
</svg>